# xmcd CD database file
#
# Track frame offsets:
#	150
#	21097
#	37105
#	54580
#	74502
#	92760
#	110425
#	131417
#	152890
#	175935
#	196055
#	216782
#
# Disc length: 3165 seconds
#
# Revision: 0
# Processed by: cddbd v1.5.1PL2 Copyright (c) Steve Scherf et al.
# Submitted via: CDex 1.50Beta5
#
DISCID=a70c5b0c
DTITLE=B@by Soul - A Life Trip
DYEAR=1900
DGENRE=Tribal
TTITLE0=旅のスヽメ
TTITLE1=Just Go !!
TTITLE2=cracker jack
TTITLE3=My Sunny Place
TTITLE4=大切なひと
TTITLE5=To be Free
TTITLE6=eternal triangle
TTITLE7=That's 快適ズム
TTITLE8=MOTHERHOOD
TTITLE9=always
TTITLE10=キミイロ feat. 音戯
TTITLE11=A Life Trip
EXTD=
EXTT0=
EXTT1=
EXTT2=
EXTT3=
EXTT4=
EXTT5=
EXTT6=
EXTT7=
EXTT8=
EXTT9=
EXTT10=
EXTT11=
PLAYORDER=
